<?xml version="1.0" encoding="iso-8859-1"?>
<!-- Generator: Adobe Illustrator 18.0.0, SVG Export Plug-In . SVG Version: 6.00 Build 0)  -->
<!DOCTYPE svg PUBLIC "-//W3C//DTD SVG 1.1//EN" "http://www.w3.org/Graphics/SVG/1.1/DTD/svg11.dtd">
<svg version="1.1" id="content" xmlns="http://www.w3.org/2000/svg" xmlns:xlink="http://www.w3.org/1999/xlink" x="0px" y="0px"
	 viewBox="0 0 100 100" style="enable-background:new 0 0 100 100;" xml:space="preserve">
<path style="fill:#999999;" d="M34.71,85.531c-15.283,0-23.033-9.506-23.033-28.254c0-22.572,20.908-53.062,21.797-54.349
	c0.561-0.811,1.907-0.811,2.468,0c0.89,1.287,21.798,31.777,21.798,54.349c0,2.865-0.631,6.943-1.646,10.644
	c-0.219,0.8-1.043,1.271-1.844,1.049c-0.799-0.219-1.269-1.045-1.049-1.844c1.136-4.139,1.539-7.893,1.539-9.849
	c0-18.568-15.493-43.792-20.032-50.783C30.17,13.487,14.677,38.72,14.677,57.277c0,17.229,6.366,25.254,20.033,25.254
	c1.907,0,3.708-0.218,5.354-0.647c0.802-0.207,1.621,0.271,1.83,1.072s-0.271,1.621-1.072,1.83
	C38.93,85.28,36.873,85.531,34.71,85.531z"/>
<path style="fill:#999999;" d="M34.71,97.719c-0.829,0-1.5-0.672-1.5-1.5V69.781c0-0.828,0.671-1.5,1.5-1.5s1.5,0.672,1.5,1.5
	v26.438C36.21,97.047,35.539,97.719,34.71,97.719z"/>
<g>
	<g>
		<path style="fill:#999999;" d="M51.801,75.792c-0.772,0-2.112,0.366-2.572,1.684h5.004C53.881,76.153,52.521,75.792,51.801,75.792
			z"/>
	</g>
	<g>
		<path style="fill:#999999;" d="M82.158,76.191c-1.534,0-2.691,1.17-2.691,2.721c0,1.591,1.131,2.748,2.691,2.748
			c1.576,0,2.721-1.156,2.721-2.748C84.879,77.361,83.709,76.191,82.158,76.191z"/>
	</g>
	<g>
		<path style="fill:#999999;" d="M51.772,71.727c-4.197,0-7.242,3.022-7.242,7.185c0,4.144,3.112,7.27,7.242,7.27
			c2.797,0,5.098-1.033,6.309-2.836c0.09-0.135,0.055-0.318-0.08-0.41l-2.875-1.963c-0.132-0.088-0.303-0.064-0.403,0.064
			c-0.535,0.701-1.557,1.135-2.665,1.135c-1.233,0-2.55-0.556-2.904-1.627h9.363c0.153,0,0.282-0.118,0.294-0.271
			c0.03-0.327,0.06-0.885,0.06-1.249C58.872,74.796,55.885,71.727,51.772,71.727z M49.228,77.476
			c0.46-1.318,1.801-1.684,2.572-1.684c0.722,0,2.08,0.362,2.431,1.684H49.228z"/>
	</g>
	<g>
		<path style="fill:#999999;" d="M67.72,76.105c0.957,0,1.842,0.459,2.31,1.198c0.043,0.069,0.114,0.118,0.195,0.135
			c0.085,0.012,0.165-0.003,0.229-0.051l3.217-2.304c0.132-0.094,0.162-0.281,0.067-0.413c-1.335-1.87-3.529-2.943-6.019-2.943
			c-4.291,0-7.527,3.09-7.527,7.185c0,4.077,3.307,7.27,7.527,7.27c2.467,0,4.719-1.11,6.021-2.973
			c0.093-0.132,0.06-0.318-0.072-0.409l-3.217-2.278c-0.067-0.048-0.153-0.063-0.229-0.051c-0.079,0.017-0.148,0.064-0.192,0.135
			c-0.468,0.739-1.353,1.198-2.31,1.198c-1.446,0-3.006-1.105-3.006-2.89C64.714,77.155,66.241,76.105,67.72,76.105z"/>
	</g>
	<g>
		<path style="fill:#999999;" d="M82.158,71.727c-4.162,0-7.185,3.022-7.185,7.185c0,4.111,3.09,7.212,7.185,7.212
			c4.113,0,7.215-3.1,7.215-7.212C89.373,74.817,86.272,71.727,82.158,71.727z M82.158,81.66c-1.56,0-2.691-1.156-2.691-2.748
			c0-1.551,1.156-2.721,2.691-2.721c1.551,0,2.721,1.17,2.721,2.721C84.879,80.503,83.734,81.66,82.158,81.66z"/>
	</g>
</g>
</svg>
