<?xml version="1.0" encoding="iso-8859-1"?>
<!-- Generator: Adobe Illustrator 18.0.0, SVG Export Plug-In . SVG Version: 6.00 Build 0)  -->
<!DOCTYPE svg PUBLIC "-//W3C//DTD SVG 1.1//EN" "http://www.w3.org/Graphics/SVG/1.1/DTD/svg11.dtd">
<svg version="1.1" id="content" xmlns="http://www.w3.org/2000/svg" xmlns:xlink="http://www.w3.org/1999/xlink" x="0px" y="0px"
	 viewBox="0 0 100 100" style="enable-background:new 0 0 100 100;" xml:space="preserve">
<path style="fill:#999999;" d="M22.822,49.924c-7.018,0-12.727-5.709-12.727-12.727s5.709-12.727,12.727-12.727
	s12.727,5.709,12.727,12.727S29.84,49.924,22.822,49.924z M22.822,27.471c-5.363,0-9.727,4.363-9.727,9.727s4.363,9.727,9.727,9.727
	s9.727-4.363,9.727-9.727S28.186,27.471,22.822,27.471z"/>
<path style="fill:#999999;" d="M40.141,74.788c-0.829,0-1.5-0.672-1.5-1.5c0-8.723-7.096-15.819-15.819-15.819
	S7.003,64.565,7.003,73.288c0,0.828-0.671,1.5-1.5,1.5s-1.5-0.672-1.5-1.5c0-10.377,8.442-18.819,18.819-18.819
	s18.819,8.442,18.819,18.819C41.641,74.116,40.97,74.788,40.141,74.788z"/>
<path style="fill:#999999;" d="M76.344,49.924c-7.018,0-12.728-5.709-12.728-12.727s5.71-12.727,12.728-12.727
	S89.07,30.18,89.07,37.198S83.361,49.924,76.344,49.924z M76.344,27.471c-5.364,0-9.728,4.363-9.728,9.727s4.363,9.727,9.728,9.727
	c5.363,0,9.727-4.363,9.727-9.727S81.707,27.471,76.344,27.471z"/>
<path style="fill:#999999;" d="M93.661,74.788c-0.828,0-1.5-0.672-1.5-1.5c0-8.723-7.097-15.819-15.819-15.819
	s-15.818,7.097-15.818,15.819c0,0.828-0.672,1.5-1.5,1.5s-1.5-0.672-1.5-1.5c0-10.377,8.441-18.819,18.818-18.819
	s18.819,8.442,18.819,18.819C95.161,74.116,94.489,74.788,93.661,74.788z"/>
<path style="fill:#999999;" d="M49.583,61.235c-4.202,0-7.62-3.418-7.62-7.62c0-4.202,3.418-7.62,7.62-7.62s7.62,3.418,7.62,7.62
	C57.203,57.817,53.785,61.235,49.583,61.235z M49.583,48.996c-2.547,0-4.62,2.073-4.62,4.62c0,2.548,2.073,4.62,4.62,4.62
	s4.62-2.072,4.62-4.62C54.203,51.068,52.131,48.996,49.583,48.996z"/>
<path style="fill:#999999;" d="M59.024,74.788c-0.828,0-1.5-0.672-1.5-1.5c0-4.379-3.562-7.941-7.941-7.941
	c-4.379,0-7.941,3.562-7.941,7.941c0,0.828-0.671,1.5-1.5,1.5s-1.5-0.672-1.5-1.5c0-6.033,4.908-10.941,10.941-10.941
	c6.033,0,10.941,4.908,10.941,10.941C60.524,74.116,59.853,74.788,59.024,74.788z"/>
</svg>
