<?xml version="1.0" encoding="iso-8859-1"?>
<!-- Generator: Adobe Illustrator 18.0.0, SVG Export Plug-In . SVG Version: 6.00 Build 0)  -->
<!DOCTYPE svg PUBLIC "-//W3C//DTD SVG 1.1//EN" "http://www.w3.org/Graphics/SVG/1.1/DTD/svg11.dtd">
<svg version="1.1" id="content" xmlns="http://www.w3.org/2000/svg" xmlns:xlink="http://www.w3.org/1999/xlink" x="0px" y="0px"
	 viewBox="0 0 100 100" style="enable-background:new 0 0 100 100;" xml:space="preserve">
<path style="fill:#999999;" d="M49.87,94.421c-0.235,0-0.474-0.056-0.697-0.173C47.663,93.454,12.19,74.59,12.19,56.542v-0.315
	c0-10.802,8.789-19.591,19.591-19.591c8.14,0,15.137,4.991,18.091,12.072c2.955-7.082,9.951-12.072,18.091-12.072
	c10.803,0,19.591,8.789,19.591,19.591v0.315c0,18.048-35.473,36.912-36.982,37.706c-0.223,0.117-0.462,0.173-0.697,0.173
	c0,0-0.001,0-0.001,0C49.873,94.421,49.871,94.421,49.87,94.421z M31.781,39.636c-9.148,0-16.591,7.442-16.591,16.591v0.315
	c0,6.609,6.052,14.737,17.502,23.505c7.416,5.678,14.904,9.921,17.18,11.169c2.28-1.251,9.792-5.509,17.21-11.192
	c11.43-8.759,17.472-16.879,17.472-23.481v-0.315c0-9.148-7.442-16.591-16.591-16.591s-16.592,7.442-16.592,16.591
	c0,0.828-0.671,1.5-1.5,1.5s-1.5-0.672-1.5-1.5C48.373,47.078,40.93,39.636,31.781,39.636z M56.745,74.896
	c-0.596,0-1.16-0.357-1.394-0.945c-0.307-0.77,0.069-1.643,0.839-1.948c6.406-2.549,10.545-8.651,10.545-15.548
	c0-0.828,0.672-1.5,1.5-1.5s1.5,0.672,1.5,1.5c0,8.133-4.881,15.329-12.436,18.335C57.118,74.861,56.93,74.896,56.745,74.896z
	 M42.998,74.896c-0.185,0-0.372-0.034-0.554-0.106c-7.555-3.006-12.436-10.203-12.436-18.335c0-0.828,0.671-1.5,1.5-1.5
	s1.5,0.672,1.5,1.5c0,6.896,4.139,12.999,10.545,15.548c0.77,0.306,1.146,1.179,0.839,1.948
	C44.158,74.538,43.594,74.896,42.998,74.896z M67.962,33.338c-7.784,0-14.117-6.333-14.117-14.118S60.178,5.102,67.962,5.102
	c7.785,0,14.118,6.333,14.118,14.118S75.747,33.338,67.962,33.338z M67.962,8.102c-6.13,0-11.117,4.987-11.117,11.118
	s4.987,11.118,11.117,11.118c6.131,0,11.118-4.988,11.118-11.118S74.093,8.102,67.962,8.102z M31.781,33.338
	c-7.785,0-14.118-6.333-14.118-14.118S23.997,5.102,31.781,5.102s14.118,6.333,14.118,14.118S39.566,33.338,31.781,33.338z
	 M31.781,8.102c-6.13,0-11.118,4.987-11.118,11.118s4.988,11.118,11.118,11.118S42.899,25.35,42.899,19.22
	S37.912,8.102,31.781,8.102z"/>
</svg>
