<?xml version="1.0" standalone="no"?>
<!DOCTYPE svg PUBLIC "-//W3C//DTD SVG 1.1//EN" "http://www.w3.org/Graphics/SVG/1.1/DTD/svg11.dtd">
<svg xmlns="http://www.w3.org/2000/svg">
<metadata>Copyright (C) 2015 by original authors @ fontello.com</metadata>
<defs>
<font id="uve" horiz-adv-x="1000" >
<font-face font-family="uve" font-weight="400" font-stretch="normal" units-per-em="1000" ascent="850" descent="-150" />
<missing-glyph horiz-adv-x="1000" />
<glyph glyph-name="arrow-down" unicode="&#xe800;" d="m500 75l-490 490 52 52 438-438 438 438 52-52-490-490z" horiz-adv-x="1000" />
<glyph glyph-name="arrow-right" unicode="&#xe801;" d="m771 346l-490-490-52 52 437 438-437 437 52 53 490-490z" horiz-adv-x="1000" />
<glyph glyph-name="arrow-left" unicode="&#xe802;" d="m719 836l52-53-437-437 437-438-52-52-490 490 490 490z" horiz-adv-x="1000" />
<glyph glyph-name="arrow-top" unicode="&#xe803;" d="m990 127l-52-52-438 437-438-437-52 52 490 490 490-490z" horiz-adv-x="1000" />
<glyph glyph-name="reservation" unicode="&#xe804;" d="m1019 27c-13 0-23 10-23 22 0 231-187 418-418 418-230 0-417-187-417-418 0-12-11-22-23-22s-22 10-22 22c0 255 207 463 462 463 256 0 463-208 463-463 0-12-10-22-22-22z m-441 440c-12 0-22 10-22 23v332c0 12 10 22 22 22s23-10 23-22v-333c0-12-10-22-23-22z m290 334h-579c-12 0-23 10-23 22s11 23 23 23h579c12 0 22-10 22-23s-10-22-22-22z m261-948h-1101c-12 0-22 10-22 23s10 22 22 22h1101c12 0 22-10 22-22s-10-23-22-23z" horiz-adv-x="1153" />
<glyph glyph-name="ok" unicode="&#xe805;" d="m493-97l-444 403 390-74 430 581-376-910" horiz-adv-x="917" />
<glyph glyph-name="love" unicode="&#xe806;" d="m499-94c-3 0-5 0-7 1-15 8-370 197-370 378v3c0 108 88 196 196 196 81 0 151-50 181-121 29 71 99 121 181 121 108 0 196-88 196-196v-3c0-181-355-370-370-378-2-1-5-1-7-1 0 0 0 0 0 0 0 0 0 0 0 0z m-181 548c-92 0-166-75-166-166v-3c0-66 60-148 175-235 74-57 149-100 172-112 23 12 98 55 172 112 114 87 175 169 175 235v3c0 91-75 166-166 166s-166-75-166-166c0-9-7-15-15-15s-15 6-15 15c0 91-75 166-166 166z m249-353c-5 0-11 4-13 10-4 7 0 16 8 19 64 26 105 87 105 156 0 8 7 15 15 15s15-7 15-15c0-82-48-154-124-184-2-1-4-1-6-1z m-137 0c-2 0-4 0-6 1-75 30-124 102-124 183 0 9 7 15 15 15s15-6 15-15c0-68 42-129 106-155 7-3 11-12 8-19-2-6-8-10-14-10z m250 416c-78 0-141 63-141 141s63 141 141 141c78 0 141-63 141-141s-63-141-141-141z m0 252c-62 0-111-50-111-111s49-111 111-111c61 0 111 50 111 111s-50 111-111 111z m-362-252c-78 0-141 63-141 141s63 141 141 141 141-63 141-141-63-141-141-141z m0 252c-61 0-111-50-111-111s50-111 111-111 111 50 111 111-50 111-111 111z" horiz-adv-x="1000" />
<glyph glyph-name="friendly" unicode="&#xe807;" d="m347-5c-153 0-230 95-230 282 0 226 209 531 218 544 5 8 19 8 24 0 9-13 218-318 218-544 0-28-6-69-16-106-2-8-10-13-18-11-8 3-13 11-11 19 11 41 15 79 15 98 0 186-154 438-200 508-45-70-200-322-200-508 0-172 63-252 200-252 19 0 37 2 54 6 8 2 16-2 18-11s-3-16-11-18c-19-5-39-7-61-7z m0-122c-8 0-15 6-15 15v264c0 9 7 15 15 15s15-6 15-15v-264c0-9-7-15-15-15z m171 219c-8 0-21-4-26-17h50c-3 14-17 17-24 17z m304-4c-16 0-27-12-27-27 0-16 11-28 27-28 15 0 27 12 27 28 0 15-12 27-27 27z m-304 45c-42 0-73-30-73-72 0-42 31-73 73-73 28 0 51 10 63 29 1 1 0 3-1 4l-29 19c-1 1-3 1-4 0-5-7-15-12-26-12-13 0-26 6-29 17h93c2 0 3 1 3 2 0 4 1 9 1 13 0 42-30 73-71 73z m-26-58c5 13 18 17 26 17 7 0 21-3 24-17h-50z m185 14c10 0 19-5 23-12 1-1 1-1 2-1 1 0 2 0 3 0l32 23c1 1 1 3 0 4-13 19-35 30-60 30-43 0-75-31-75-72 0-41 33-73 75-73 25 0 47 11 60 30 1 1 1 3 0 4l-32 23c-1 0-2 0-3 0-1 0-1 0-2-1-4-7-13-12-23-12-14 0-30 11-30 29 0 18 15 28 30 28z m145 44c-42 0-72-30-72-72 0-41 31-72 72-72 41 0 72 31 72 72 0 41-31 72-72 72z m0-100c-16 0-27 12-27 28 0 15 11 27 27 27 15 0 27-12 27-27 0-16-12-28-27-28z" horiz-adv-x="1000" />
<glyph glyph-name="childrens" unicode="&#xe808;" d="m228 351c-70 0-127 57-127 127s57 127 127 127 128-57 128-127-58-127-128-127z m0 224c-53 0-97-43-97-97s44-97 97-97 98 43 98 97-44 97-98 97z m173-473c-8 0-15 7-15 15 0 87-71 158-158 158s-158-71-158-158c0-8-7-15-15-15s-15 7-15 15c0 104 85 188 188 188s188-84 188-188c0-8-6-15-15-15z m362 249c-70 0-127 57-127 127s57 127 127 127 128-57 128-127-57-127-128-127z m0 224c-53 0-97-43-97-97s44-97 97-97c54 0 98 43 98 97s-44 97-98 97z m174-473c-9 0-15 7-15 15 0 87-71 158-159 158s-158-71-158-158c0-8-6-15-15-15s-15 7-15 15c0 104 85 188 188 188s189-84 189-188c0-8-7-15-15-15z m-441 136c-42 0-76 34-76 76 0 42 34 76 76 76s76-34 76-76c0-42-34-76-76-76z m0 122c-26 0-46-21-46-46 0-26 20-46 46-46s46 20 46 46c0 25-21 46-46 46z m94-258c-8 0-15 7-15 15 0 44-35 80-79 80-44 0-80-36-80-80 0-8-6-15-15-15s-15 7-15 15c0 61 50 110 110 110 60 0 109-50 109-110 0-8-6-15-15-15z" horiz-adv-x="1000" />
<glyph glyph-name="facebook" unicode="&#xe809;" d="m535 843v-147h-87q-48 0-65-20t-17-60v-106h164l-22-165h-142v-424h-171v424h-142v165h142v122q0 104 58 161t155 57q82 0 127-7z" horiz-adv-x="571.4" />
<glyph glyph-name="instagram" unicode="&#xe80a;" d="m760 54v362h-75q11-35 11-73 0-71-36-130t-97-94-134-35q-110 0-188 76t-78 183q0 38 11 73h-79v-362q0-14 10-24t25-10h596q14 0 24 10t10 24z m-158 298q0 69-51 118t-122 49q-71 0-121-49t-51-118 51-118 121-49q72 0 122 49t51 118z m158 201v92q0 15-11 27t-27 11h-98q-16 0-27-11t-11-27v-92q0-17 11-28t27-11h98q16 0 27 11t11 28z m97 116v-638q0-45-32-77t-78-33h-637q-45 0-78 33t-32 77v638q0 45 32 77t78 33h637q45 0 78-33t32-77z" horiz-adv-x="857.1" />
<glyph glyph-name="twitter" unicode="&#xe80b;" d="m904 622q-37-54-90-93 0-8 0-23 0-73-21-145t-64-139-103-117-144-82-181-30q-151 0-276 81 19-3 43-3 126 0 224 77-59 2-105 36t-64 89q19-2 34-2 24 0 48 6-63 13-104 62t-41 115v2q38-21 82-23-37 25-59 64t-22 86q0 49 25 91 68-83 164-133t208-55q-5 21-5 41 0 75 53 127t127 53q79 0 132-57 61 12 114 44-20-64-79-100 52 6 104 28z" horiz-adv-x="928.6" />
<glyph glyph-name="pinterest" unicode="&#xe80c;" d="m0 517q0 60 21 113t58 93 85 69 103 43 112 15q89 0 165-37t123-108 47-160q0-54-10-105t-34-99-56-83-81-58-105-21q-38 0-75 17t-54 50q-5-22-15-63t-14-53-11-40-15-39-17-35-26-44-35-48l-7-3-6 6q-8 88-8 105 0 51 12 115t37 161 29 113q-18 36-18 94 0 46 29 87t74 41q34 0 53-23t19-57q0-37-25-107t-24-104q0-35 25-58t61-23q31 0 57 14t44 38 31 53 21 61 11 62 4 56q0 96-61 150t-160 54q-111 0-186-72t-75-184q0-24 7-47t15-36 15-26 7-17q0-15-8-40t-21-26q-1 0-9 2-29 8-51 31t-34 53-18 60-6 60z" horiz-adv-x="714.3" />
<glyph glyph-name="play" unicode="&#xe80d;" d="m50-125c-4 0-7 1-10 2-9 4-16 13-16 24v914c0 11 7 20 16 24 10 4 21 1 28-6l430-457c9-10 9-25 0-35l-430-458c-5-5-12-8-18-8z m25 876v-786l370 393-370 393z" horiz-adv-x="531" />
<glyph glyph-name="chair" unicode="&#xe80e;" d="m61-140c-5 0-11 2-15 6-10 8-11 23-3 33l195 237c8 10 23 11 33 3 10-8 12-23 3-33l-195-237c-4-6-11-9-18-9z m695 0c-7 0-14 3-18 9l-195 237c-9 10-7 25 3 33 10 8 25 7 33-3l195-237c8-10 7-25-3-33-4-4-10-6-15-6z m-435 237c-112 0-224 11-279 87-41 57-43 138-6 249 79 236 169 364 277 393 47 12 95 10 97 10 13 0 23-11 22-24 0-13-12-23-24-23-1 0-43 2-83-9-90-23-172-146-244-362-31-94-32-163-1-206 43-60 146-68 241-68 13 0 24-10 24-23s-11-24-24-24z m88 0h-88c-13 0-23 11-23 24s10 23 23 23h88c13 0 23-10 23-23s-10-24-23-24z m87 0c-13 0-23 11-23 24s10 23 23 23c95 0 198 8 242 68 30 43 30 112-1 206-72 216-154 339-244 362-40 11-83 9-83 9-13 0-24 10-25 23 0 13 10 24 23 24 2 0 49 2 97-10 108-29 198-157 277-393 36-111 34-192-6-249-56-76-167-87-280-87z m0 0h-87c-13 0-24 11-24 24s11 23 24 23h87c13 0 24-10 24-23s-11-24-24-24z m-88 134c-68 0-123 14-168 43-11 6-14 21-7 32 6 11 21 14 32 7 37-23 84-35 143-35s106 12 144 35c11 7 25 4 32-7s4-26-7-32c-45-29-100-43-169-43z" horiz-adv-x="822" />
<glyph glyph-name="diamond" unicode="&#xe80f;" d="m566-137c-1 0-4 0-5 1-4 0-7 1-9 3-2 1-4 2-6 4 0 1-1 2-2 3l-519 624c-4 5-6 11-6 18 0 6 2 12 6 17l225 287c0 0 0 0 0 0 0 0 0 0 0 0 0 0 0 0 0 0l0 0c4 5 10 9 17 10l0 0c0 0 0 0 0 0 0 0 1 0 1 0 2 0 3 1 4 1h300c0 0 0 0 0 0h288c1 0 2-1 4-1 0 0 0 0 1 0 0 0 0 0 0 0h0c7-1 13-5 17-10l225-287c4-5 6-11 6-17 0-7-2-13-6-18l-519-624c-1-1-1-2-2-3-2-1-4-3-6-4-2-2-5-3-9-3-1-1-3-1-5-1z m28 625v-454l185 454h-185z m-241 0l185-454v454h-185z m486 0l-179-441 366 441h-187z m-733 0l366-441-179 441h-187z m746 56h176l-149 190-27-190z m-286 0h193l-187 217-197-217h191z m-462 0h176l-27 190-149-190z m200 231l27-196 178 196h-205z m329 0l168-194 27 194h-195z" horiz-adv-x="1130" />
<glyph glyph-name="child" unicode="&#xe810;" d="m345 36c-51 0-101 11-147 34-9 4-13 15-9 25 5 9 16 13 25 8 41-20 85-30 131-30 50 0 100 13 143 36 9 5 21 2 26-7 5-9 1-21-8-26-49-26-105-40-161-40z m-90-161v125c0 11-8 19-19 19s-19-8-19-19v-125c0-10 9-18 19-18s19 8 19 18z m61 0c0 11-8 19-18 19h-123c-11 0-19-8-19-19s8-18 19-18h123c10 0 18 8 18 18z m170 0v125c0 11-9 19-19 19s-19-8-19-19v-125c0-10 9-18 19-18s19 8 19 18z m61 0c0 11-8 19-18 19h-123c-11 0-19-8-19-19s8-18 19-18h123c10 0 18 8 18 18z m-306 635c-13 2-28-19-34-49-5-29 1-55 14-57s28 19 34 48-1 55-14 58z m196-58c6-29 21-51 34-48 13 2 19 28 13 57-6 30-21 51-34 49-13-3-19-28-13-58z m1-123c0 47-39 86-86 86s-86-39-86-86 38-86 86-86 86 38 86 86z m-38 0c0-27-22-49-48-49s-49 22-49 49 22 48 49 48 48-22 48-48z m-30 368v128c0 10-8 18-18 18s-19-8-19-18v-128c0-10 8-19 19-19s18 9 18 19z m-214-576c7 8 6 20-2 27-66 57-104 140-104 228 0 167 135 302 302 302 166 0 302-135 302-302 0-88-38-171-105-228-8-7-8-19-2-27 7-8 19-8 27-2 74 65 117 159 117 257 0 187-152 340-339 340s-340-153-340-340c0-98 43-192 118-257 3-3 7-4 12-4 5 0 10 2 14 6z" horiz-adv-x="697" />
<glyph glyph-name="temperature" unicode="&#xe811;" d="m275 716c-13 0-23 11-23 23 0 30-24 54-54 54s-53-24-53-54c0-12-11-23-23-23s-23 11-23 23c0 55 45 100 99 100s100-45 100-100c0-12-10-23-23-23z m-153-560c-13 0-23 10-23 22v554c0 12 10 23 23 23s23-11 23-23v-554c0-12-11-22-23-22z m76-132c-8 0-15 7-15 15v540c0 8 7 15 15 15s16-7 16-15v-540c0-8-7-15-16-15z m77 132c-13 0-23 10-23 22v554c0 12 10 23 23 23s23-11 23-23v-554c0-12-10-22-23-22z m-76-293c-99 0-179 81-179 180 0 64 34 124 90 155 11 7 25 3 32-8 6-11 2-25-9-32-42-23-68-68-68-115 0-74 60-134 134-134s133 60 133 134c0 47-26 92-68 116-11 6-15 20-9 31 6 11 20 15 31 8 57-31 91-91 91-155 0-99-80-180-178-180z m0 98c-43 0-78 35-78 78s35 78 78 78 77-35 77-78-35-78-77-78z m275 702h-123c-12 0-22 10-22 23s10 23 22 23h123c12 0 22-10 22-23s-10-23-22-23z m0-389h-123c-12 0-22 11-22 23s10 23 22 23h123c12 0 22-10 22-23s-10-23-22-23z m0 195h-123c-12 0-22 10-22 23s10 22 22 22h123c12 0 22-10 22-22s-10-23-22-23z m76 97h-199c-12 0-22 10-22 23s10 23 22 23h199c13 0 23-11 23-23s-10-23-23-23z m0-194h-199c-12 0-22 10-22 22s10 23 22 23h199c13 0 23-10 23-23s-10-22-23-22z" horiz-adv-x="583" />
<glyph glyph-name="wifi" unicode="&#xe812;" d="m961 464c-8 0-17 3-23 10l0 0c-1 2-157 174-437 174s-435-172-437-174c-11-13-30-14-43-3-13 11-14 31-3 43 7 8 174 195 483 195s477-187 483-195c12-12 10-32-2-43-6-5-13-7-21-7z m-764-157c1 1 108 120 304 120 195 0 303-118 304-120 12-13 31-14 44-3 12 11 14 31 3 43-6 6-127 142-351 142-223 0-345-136-350-142-11-12-10-32 3-43 6-5 13-8 20-8 9 0 17 4 23 11z m479-138c13 11 14 31 3 43-3 3-65 73-178 73s-174-70-177-73c-11-12-10-31 3-43 12-11 32-10 43 3 2 2 47 51 131 51 84 0 129-49 132-51 6-7 14-11 23-11 7 0 14 3 20 8z m-175-91c-27 0-48-22-48-48 0-27 21-49 48-49 27 0 49 22 49 49 0 26-22 48-49 48z" horiz-adv-x="1000" />
<glyph glyph-name="air" unicode="&#xe813;" d="m507-109c-17 0-31 14-31 31s14 31 31 31c224 0 406 182 406 406 0 169-105 321-262 381-16 6-24 24-18 40 6 15 24 23 39 17 181-68 303-244 303-438 0-258-210-468-468-468z m153 785c-11 0-22 6-28 17l-35 75c-7 15-1 33 14 41 16 7 34 1 41-15l36-74c7-15 1-34-15-41-4-2-8-3-13-3z m-35 74c-12 0-23 7-28 18-7 15-1 33 14 41l75 35c15 8 33 1 41-14 7-15 0-34-15-41l-74-36c-5-2-9-3-13-3z m-273-829c-4 0-8 1-11 2-181 69-303 245-303 438 0 259 210 469 469 469 17 0 30-14 30-31s-13-31-30-31c-225 0-407-182-407-407 0-168 105-321 263-380 15-6 23-24 17-40-4-12-16-20-28-20z m37-12c-12 0-23 6-28 17l-36 75c-7 15 0 34 15 41 15 7 33 1 41-15l35-74c8-15 1-34-14-41-4-2-9-3-13-3z m-75-36c-11 0-22 7-27 18-8 15-1 34 14 41l74 35c16 8 34 1 41-14s1-34-14-41l-74-36c-5-2-9-3-14-3z m320 457c-6 0-11 2-16 5-33 20-63 20-95 0-14-9-33-5-42 10-9 14-5 33 9 42 53 33 108 33 160 0 15-9 19-28 10-42-6-10-16-15-26-15z m64-20c-27 0-54 9-80 25-15 9-19 28-10 42 9 15 28 19 42 10 33-20 63-20 95 0 14 9 33 5 42-10 9-14 5-33-9-42-27-16-53-25-80-25z m-319 20c-5 0-11 2-16 5-32 20-63 20-95 0-14-9-33-5-42 10-9 14-5 33 10 42 52 33 107 33 160 0 14-9 18-28 9-42-6-10-16-15-26-15z m64-20c-27 0-54 9-80 25-14 9-19 28-10 42 9 15 28 19 43 10 32-20 62-20 94 0 15 9 34 5 43-10 9-14 4-33-10-42-26-16-53-25-80-25z m191-118c-6 0-11 1-16 5-33 20-63 20-95 0-14-9-33-5-42 9-9 15-5 33 9 43 53 32 108 32 160 0 15-10 19-28 10-43-6-9-16-14-26-14z m64-20c-27 0-54 8-80 25-15 9-19 28-10 42 9 14 28 19 42 10 33-21 63-21 95 0 14 9 33 4 42-10 9-14 5-33-9-42-27-17-53-25-80-25z m-319 20c-5 0-11 1-16 5-32 20-63 20-95 0-14-9-33-5-42 9-9 15-5 33 10 43 52 32 107 32 160 0 14-10 18-28 9-43-6-9-16-14-26-14z m64-20c-27 0-54 8-80 25-14 9-19 28-10 42 9 14 28 19 43 10 32-21 62-21 94 0 15 9 34 4 43-10 9-14 4-33-10-42-26-17-53-25-80-25z m191 297c-6 0-11 1-16 4-33 21-63 21-95 0-14-9-33-4-42 10-9 14-5 33 9 42 53 33 108 33 160 0 15-9 19-28 10-42-6-9-16-14-26-14z m64-20c-27 0-54 8-80 24-15 9-19 28-10 43 9 14 28 18 42 9 33-20 63-20 95 0 14 9 33 5 42-9 9-15 5-34-9-43-27-16-53-24-80-24z m-319 20c-5 0-11 1-16 4-32 21-63 21-95 0-14-9-33-4-42 10-9 14-5 33 10 42 52 33 107 33 160 0 14-9 18-28 9-42-6-9-16-14-26-14z m64-20c-27 0-54 8-80 24-14 9-19 28-10 43 9 14 28 18 43 9 32-20 62-20 94 0 15 9 34 5 43-9 9-15 4-34-10-43-26-16-53-24-80-24z" horiz-adv-x="1000" />
<glyph glyph-name="coofee" unicode="&#xe814;" d="m420-147c-123 0-193 79-193 218v74c0 13 11 23 23 23h340c13 0 23-10 23-23v-74c0-139-70-218-193-218z m-146 269v-51c0-114 49-171 146-171 97 0 146 57 146 171v51h-292z m387-262c-13 0-23 10-23 23s10 24 23 24c62 0 112 41 112 91v699c0 50-50 91-112 91h-482c-61 0-111-41-111-91v-699c0-50 50-91 111-91 13 0 24-11 24-24s-11-23-24-23c-87 0-158 62-158 138v699c0 76 71 137 158 137h482c87 0 159-61 159-137v-699c0-76-72-138-159-138z m-144 326c-13 0-23 11-23 24v24c0 13 10 23 23 23s24-10 24-23v-24c0-13-11-24-24-24z m-97 0c-13 0-23 11-23 24v91c0 13 10 23 23 23s24-10 24-23v-91c0-13-11-24-24-24z m-97 0c-13 0-23 11-23 24v48c0 13 10 24 23 24s24-11 24-24v-48c0-13-11-24-24-24z m223 417h-251c-13 0-24 11-24 24s11 23 24 23h251c12 0 23-10 23-23s-11-24-23-24z" horiz-adv-x="836" />
<glyph glyph-name="tv" unicode="&#xe815;" d="m639 70h-289c-9 0-17 7-17 16s8 17 17 17h128v53c0 9 7 16 16 16 9 0 17-7 17-16v-53h128c9 0 16-8 16-17s-7-16-16-16z m314 123h-917c-9 0-17 7-17 16v439c0 9 8 16 17 16h917c9 0 16-7 16-16v-439c0-9-7-16-16-16z m-901 33h884v405h-884v-405z" horiz-adv-x="1000" />
<glyph glyph-name="safety" unicode="&#xe816;" d="m858-128h-816c-17 0-30 14-30 31v535c0 17 13 31 30 31h151v111c0 143 115 258 257 258s258-115 258-258v-111h150c17 0 31-14 31-31v-535c0-17-14-31-31-31z m-785 62h754v474h-754v-474z m181 535h392v111c0 109-88 197-196 197s-196-88-196-197v-111z m196-443c-79 0-144 65-144 145s65 144 144 144 144-65 144-144-64-145-144-145z m0 227c-45 0-83-37-83-82s38-83 83-83 83 37 83 83-37 82-83 82z" horiz-adv-x="908" />
<glyph glyph-name="phone" unicode="&#xe817;" d="m403 672h-242c-11 0-19 9-19 20s8 21 19 21h242c10 0 18-10 18-21s-8-20-18-20z m-121-628c-16 0-28-13-28-30s12-31 28-31c15 0 28 14 28 31s-13 30-28 30z m260-129v861c0 29-21 53-48 53h-425c-26 0-48-24-48-53v-861c0-29 22-53 48-53h425c27 0 48 24 48 53z m-48 873c6 0 11-5 11-12v-861c0-6-5-12-11-12h-425c-6 0-11 6-11 12v861c0 7 5 12 11 12h425z" horiz-adv-x="561" />
<glyph glyph-name="email" unicode="&#xe818;" d="m27 103c-1 0-1 0-1 0-3 0-5 0-7 1-2 2-4 3-6 5-1 2-2 4-3 6-1 2-1 4-1 6v494c0 1 0 3 1 5 1 2 2 4 3 6 2 2 4 3 6 5 2 1 4 1 7 1 0 0 1 0 1 0h852c1 0 1 0 1 0 3 0 5 0 7-1 3-1 4-3 6-5 2-2 3-4 3-6 1-2 1-4 1-5v-494c0-2 0-4-1-6l0 0c0 0 0 0 0 0 0-2-2-4-3-6-2-2-4-3-6-4-2-2-4-2-7-2 0 0 0 0-1 0h-852c0 0 0 0 0 0z m52 35h748l-274 211-89-67c-1-1-2-2-3-2-3-1-5-2-8-2h0 0c-2 0-5 1-7 2-2 0-3 1-4 2l-89 67-274-211z m504 233l279-215v423l-279-208z m-539 208v-422l279 214-279 208z m36 18l373-279 373 279h-746z" horiz-adv-x="908" />
</font>
</defs>
</svg>
